<?xml version="1.0" encoding="UTF-8"?>
<svg id="katman_1" xmlns="http://www.w3.org/2000/svg" version="1.1" viewBox="0 0 552.76 277.31">
  <!-- Generator: Adobe Illustrator 29.6.1, SVG Export Plug-In . SVG Version: 2.1.1 Build 9)  -->
  <defs>
    <style>
      .st0 {
        fill: #fff;
      }

      .st1 {
        fill: #ceb19c;
      }
    </style>
  </defs>
  <path d="M273.67,277.31c-13.07-6.15-7.5-23.86-4.5-35s7.76-21.13,10.49-32c-8.98,4.16-14.56,11.52-25.54,8.03-13.44-4.27-1.99-30.79,3.67-38.41.65-.88,1-1.78,2.35-1.66.86,0,4.6,2.34,5.03,3.04,3.2,5.21-11.83,22.76-7.36,29.85,3.87,2.46,22.7-8.11,25.89-11.32,5.37-5.4,10.15-21.67,13.79-29.21,5.8-12,19.33-43.51,34.69-43.41,4.87.03,9.26,2.99,10.26,7.82,3.87,18.82-23.8,41.37-39.53,47.52l-6.23,17.75,25.01-2.48c4.68-8.57,9.63-16.24,19.3-19.7,8.09-2.89,19.24-1.97,16.22,9.22-2.08,7.69-17.67,15.51-25.54,14.97-.65,3.6.96,6.67,4.09,8.41,14.29,7.97,37.31-17.05,40.39-16.42l1.52,2.49c-11.26,11.71-33.15,29.74-49.95,18.97-3.83-2.45-6.29-6.81-6.09-11.41l-23.96,1.96c3.57,13.87,2.5,28.47-1.28,42.21-3.01,10.95-8.01,23.59-18.72,28.78h-4ZM308.68,173.31c10.24-4.11,31.19-25.96,27.79-37.29-2.61-8.7-13.4,7.57-15.22,10.37-2.06,3.17-13.83,25.35-12.57,26.92ZM333.68,197.31c4.3-.57,21.55-8.37,17.55-14.06-3.43-4.89-19.27,8.08-17.55,14.06ZM275.68,268.31c7.54.39,11.85-13.52,13.71-19.79,3.26-10.99,7.12-27.83,1.78-38.21-3.58,7.06-19.4,54.23-15.49,58Z"/>
  <path d="M449.67,84.31L525.12,1.25c3.61-2.07,9.71-.93,13.55.07l-59.76,67.48,73.85,101.01-.52,2.57-45.55.41c-19.86-23.46-35.94-50.11-57.02-72.48v70.5c0,.17-1.54,1.76-2.02,1.98-2.23,1.04-26.39.91-30.53.56-2.99-.25-5.77-.18-6.21-3.74l.66-167.9c.96-1.22,2.15-1.27,3.55-1.45,3.6-.47,30.64-.32,32.53.56.47.22,2.02,1.81,2.02,1.98v81.5Z"/>
  <path d="M113.17,173.31l-22.99-52.01-2.95-1.05-52.42.19-24.3,52.7c-2.46.4-10.16.97-10.51-2.31L79.16,1.21l3.53.59,70.97,169.08c.21.84-1.05,2.43-1.48,2.43h-39ZM85.67,109.31l-21.01-50-23.99,50h45Z"/>
  <path d="M355.17,173.31c-4.27-.91-10.41-14.59-9.33-18.27.58-1.97,4.48-5.63,5.56-9.49,3.55-12.69-4.22-26.32-18.24-26.32-2.37,0-4.57,1.1-6.95,1.12-17.46.12-34.94-.32-52.38.12l-23.65,51.85c-2.03,1.8-9.68,1.78-10.32-1.65L318.2.24c4.35-.37,6.42,7.69,7.94,11.1,5.82,13.05,10.52,26.75,16.06,39.94,16.76,39.86,34.37,79.49,50.53,119.52l-1.56,2.51c-10.26-1.5-26.53,2.01-36,0ZM279.67,109.31h44l-20.51-50.01-23.49,50.01Z"/>
  <path d="M222.39,11.31c-3.16,0-5.72,2.56-5.72,5.72v125.78c0,1.39-9.95,23.34-11.8,25.2-6.73,6.73-13.53,5.03-22.14,5.02-2.43,0-4.59-1.6-5.39-3.9-.43-1.24-.67-2.5-.67-3.32V17.02c0-3.16-2.56-5.72-5.72-5.72h-40.61c-3.05,0-5.69-2.39-5.71-5.44,0-.04,0-.08,0-.12.03-3.05,2.66-5.44,5.71-5.44h132.21c2.98,0,5.53,2.28,5.7,5.26s-.53,5.74-2.08,5.74h-43.78Z"/>
  <path d="M198.67,229.3c17.05-2.45,35.23-5.51,52.54-4.03,5.52.47,10.88,2.08,14.44,6.54-2.53,3.24-6.42.62-9.49.51-23.83-.89-45.65,4.86-68.11,11.93-3.48.13-5.89-2.18-6.38-5.53l58.12-129.28c8.98-.15,8.31,5.04,6.33,11.83-6.24,21.34-23.24,50.83-32.63,72.37-5.14,11.8-9.89,23.79-14.82,35.67Z"/>
  <path d="M274.42,161.55c3.11,3.06-1.23,9.89-4.47,11.61-12.55-.15-2.84-18.8,4.47-11.61Z"/>
  <path class="st0" d="M275.68,268.31c-3.9-3.77,11.91-50.94,15.49-58,5.34,10.39,1.48,27.22-1.78,38.21-1.86,6.26-6.17,20.18-13.71,19.79Z"/>
  <path class="st0" d="M308.68,173.31c-1.26-1.57,10.51-23.76,12.57-26.92,1.82-2.8,12.61-19.07,15.22-10.37,3.4,11.33-17.55,33.17-27.79,37.29Z"/>
  <rect class="st1" y="189.74" width="167.69" height="6.94" rx="1.47" ry="1.47"/>
  <rect class="st1" x="397.99" y="189.74" width="154.49" height="6.94" rx="1.47" ry="1.47"/>
</svg>